<?xml version="1.0" encoding="UTF-8"?>
<!DOCTYPE svg PUBLIC "-//W3C//DTD SVG 1.1//EN" "http://www.w3.org/Graphics/SVG/1.1/DTD/svg11.dtd">
<!-- Creator: CorelDRAW -->
<svg xmlns="http://www.w3.org/2000/svg" xml:space="preserve" width="150px" height="153px" version="1.1" style="shape-rendering:geometricPrecision; text-rendering:geometricPrecision; image-rendering:optimizeQuality; fill-rule:evenodd; clip-rule:evenodd"
viewBox="0 0 13.43 13.71"
 xmlns:xlink="http://www.w3.org/1999/xlink"
 xmlns:xodm="http://www.corel.com/coreldraw/odm/2003">
 <defs>
  <style type="text/css">
   <![CDATA[
    .fil0 {fill:#FEFEFE}
   ]]>
  </style>
 </defs>
 <g id="Layer_x0020_1">
  <metadata id="CorelCorpID_0Corel-Layer"/>
  <path class="fil0" d="M10.49 0l-7.55 0c-1.62,0 -2.94,1.48 -2.94,3.31l0 3.07c0,1.38 0.76,2.57 1.83,3.06 -0.98,2.84 -1.36,4.27 -1.36,4.27l6.96 -4.02 3.06 0c1.63,0 2.94,-1.48 2.94,-3.31l0 -3.07c0,-1.83 -1.31,-3.31 -2.94,-3.31zm-0.44 7.1l-7.08 0c-0.26,0 -0.47,-0.24 -0.47,-0.53 0,-0.3 0.21,-0.54 0.47,-0.54l7.08 0c0.26,0 0.47,0.24 0.47,0.54 0,0.29 -0.21,0.53 -0.47,0.53zm1.07 -1.78l-8.09 0c-0.29,0 -0.53,-0.24 -0.53,-0.53 0,-0.3 0.24,-0.54 0.53,-0.54l8.09 0c0.29,0 0.53,0.24 0.53,0.54 0,0.29 -0.24,0.53 -0.53,0.53zm0 -1.78l-8.09 0c-0.29,0 -0.53,-0.24 -0.53,-0.54 0,-0.29 0.24,-0.53 0.53,-0.53l8.09 0c0.29,0 0.53,0.24 0.53,0.53 0,0.3 -0.24,0.54 -0.53,0.54z"/>
 </g>
</svg>
