<?xml version="1.0" encoding="UTF-8"?>
<!DOCTYPE svg PUBLIC "-//W3C//DTD SVG 1.1//EN" "http://www.w3.org/Graphics/SVG/1.1/DTD/svg11.dtd">
<!-- Creator: CorelDRAW -->
<svg xmlns="http://www.w3.org/2000/svg" xml:space="preserve" width="150px" height="150px" version="1.1" style="shape-rendering:geometricPrecision; text-rendering:geometricPrecision; image-rendering:optimizeQuality; fill-rule:evenodd; clip-rule:evenodd"
viewBox="0 0 11.46 11.46"
 xmlns:xlink="http://www.w3.org/1999/xlink"
 xmlns:xodm="http://www.corel.com/coreldraw/odm/2003">
 <defs>
  <style type="text/css">
   <![CDATA[
    .fil4 {fill:#60A2A2;fill-rule:nonzero}
    .fil2 {fill:#A4A14F;fill-rule:nonzero}
    .fil5 {fill:#ABD5CB;fill-rule:nonzero}
    .fil1 {fill:#D91111;fill-rule:nonzero}
    .fil6 {fill:#E0DBC0;fill-rule:nonzero}
    .fil3 {fill:#EBCB42;fill-rule:nonzero}
    .fil0 {fill:#ED5151;fill-rule:nonzero}
   ]]>
  </style>
 </defs>
 <g id="Layer_x0020_1">
  <metadata id="CorelCorpID_0Corel-Layer"/>
  <g id="_2142184392048">
   <path class="fil0" d="M11.46 8.71c0,1.52 -1.23,2.75 -2.75,2.75l-0.01 0 -2.71 0 -3.24 0c-1.52,0 -2.75,-1.23 -2.75,-2.75l0 -5.96c0,-1.52 1.23,-2.75 2.75,-2.75l5.96 0c1.52,0 2.75,1.23 2.75,2.75l0 5.96z"/>
   <path class="fil1" d="M11.46 8.71c0,1.52 -1.23,2.75 -2.75,2.75l-0.01 0 -2.03 0 -1.43 -1.56 3.31 0c0.26,0 0.47,-0.21 0.47,-0.47l0 -3.99 2.44 1.65 0 1.62z"/>
   <path class="fil2" d="M8.37 9.83l-5.16 0c-0.27,0 -0.49,-0.22 -0.49,-0.48l0 -6.95c0,-0.27 0.22,-0.49 0.49,-0.49l5.16 0c0.27,0 0.49,0.22 0.49,0.49l0 6.95c0,0.26 -0.22,0.48 -0.49,0.48z"/>
   <path class="fil3" d="M8.55 9.9l-5.13 0c-0.26,0 -0.47,-0.21 -0.47,-0.47l0 -6.74c0,-0.26 0.21,-0.47 0.47,-0.47l5.13 0c0.26,0 0.47,0.21 0.47,0.47l0 6.74c0,0.26 -0.21,0.47 -0.47,0.47z"/>
   <path class="fil4" d="M8.21 4.06l-3.31 0c-0.05,0 -0.08,-0.03 -0.08,-0.08l0 -0.02c0,-0.05 0.03,-0.08 0.08,-0.08l3.31 0c0.04,0 0.08,0.03 0.08,0.08l0 0.02c0,0.05 -0.04,0.08 -0.08,0.08z"/>
   <path class="fil4" d="M8.21 5.38l-3.31 0c-0.05,0 -0.08,-0.04 -0.08,-0.08l0 -0.03c0,-0.04 0.03,-0.08 0.08,-0.08l3.31 0c0.04,0 0.08,0.04 0.08,0.08l0 0.03c0,0.04 -0.04,0.08 -0.08,0.08z"/>
   <path class="fil4" d="M8.21 6.56l-3.31 0c-0.05,0 -0.08,-0.04 -0.08,-0.08l0 -0.03c0,-0.04 0.03,-0.08 0.08,-0.08l3.31 0c0.04,0 0.08,0.04 0.08,0.08l0 0.03c0,0.04 -0.04,0.08 -0.08,0.08z"/>
   <path class="fil4" d="M8.21 7.9l-3.31 0c-0.05,0 -0.08,-0.04 -0.08,-0.08l0 -0.03c0,-0.04 0.03,-0.08 0.08,-0.08l3.31 0c0.04,0 0.08,0.04 0.08,0.08l0 0.03c0,0.04 -0.04,0.08 -0.08,0.08z"/>
   <path class="fil4" d="M7.96 2.5l-3.84 0c-0.12,0 -0.22,-0.1 -0.22,-0.22l0 -0.49c0,-0.12 0.1,-0.22 0.22,-0.22l3.84 0c0.12,0 0.22,0.1 0.22,0.22l0 0.49c0,0.12 -0.1,0.22 -0.22,0.22z"/>
   <path class="fil4" d="M4.46 3.97c0,0.18 -0.15,0.33 -0.33,0.33 -0.18,0 -0.32,-0.15 -0.32,-0.33 0,-0.18 0.14,-0.32 0.32,-0.32 0.18,0 0.33,0.14 0.33,0.32z"/>
   <path class="fil4" d="M4.37 5.27c0,0.18 -0.14,0.32 -0.32,0.32 -0.18,0 -0.33,-0.14 -0.33,-0.32 0,-0.18 0.15,-0.33 0.33,-0.33 0.18,0 0.32,0.15 0.32,0.33z"/>
   <path class="fil4" d="M4.37 6.47c0,0.17 -0.14,0.32 -0.32,0.32 -0.18,0 -0.33,-0.15 -0.33,-0.32 0,-0.18 0.15,-0.33 0.33,-0.33 0.18,0 0.32,0.15 0.32,0.33z"/>
   <path class="fil4" d="M4.37 7.81c0,0.18 -0.14,0.32 -0.32,0.32 -0.18,0 -0.33,-0.14 -0.33,-0.32 0,-0.18 0.15,-0.33 0.33,-0.33 0.18,0 0.32,0.15 0.32,0.33z"/>
   <path class="fil4" d="M9.93 2.24c0,0.73 -0.6,1.32 -1.33,1.32 -0.73,0 -1.33,-0.59 -1.33,-1.32 0,-0.74 0.6,-1.33 1.33,-1.33 0.73,0 1.33,0.59 1.33,1.33z"/>
   <path class="fil5" d="M8.6 1.05c-0.65,0 -1.19,0.53 -1.19,1.19 0,0.65 0.54,1.18 1.19,1.18 0.65,0 1.19,-0.53 1.19,-1.18 0,-0.66 -0.54,-1.19 -1.19,-1.19zm0 2.65c-0.81,0 -1.47,-0.66 -1.47,-1.46 0,-0.81 0.66,-1.47 1.47,-1.47 0.81,0 1.47,0.66 1.47,1.47 0,0.8 -0.66,1.46 -1.47,1.46z"/>
   <path class="fil6" d="M8.74 2.76l-0.13 0 0 -0.85c-0.07,0.07 -0.16,0.12 -0.27,0.16l0 -0.13c0.16,-0.07 0.26,-0.16 0.32,-0.27l0.08 0 0 1.09z"/>
   <path class="fil6" d="M8.67 2.71l0.01 0 0 -0.97c-0.06,0.09 -0.15,0.17 -0.28,0.24l0 0.01c0.06,-0.04 0.12,-0.07 0.17,-0.12 0.02,-0.02 0.04,-0.02 0.06,-0.01 0.02,0.01 0.04,0.03 0.04,0.05l0 0.8zm0.07 0.11l-0.13 0c-0.03,0 -0.06,-0.02 -0.06,-0.06l0 -0.73c-0.05,0.04 -0.12,0.07 -0.19,0.1 -0.02,0 -0.04,0 -0.05,-0.01 -0.02,-0.01 -0.03,-0.03 -0.03,-0.05l0 -0.13c0,-0.02 0.02,-0.04 0.04,-0.05 0.14,-0.07 0.24,-0.15 0.28,-0.24 0.01,-0.02 0.03,-0.04 0.06,-0.04l0.08 0c0.03,0 0.06,0.03 0.06,0.06l0 1.09c0,0.04 -0.03,0.06 -0.06,0.06z"/>
  </g>
 </g>
</svg>
