<?xml version="1.0" encoding="UTF-8"?>
<!DOCTYPE svg PUBLIC "-//W3C//DTD SVG 1.1//EN" "http://www.w3.org/Graphics/SVG/1.1/DTD/svg11.dtd">
<!-- Creator: CorelDRAW -->
<svg xmlns="http://www.w3.org/2000/svg" xml:space="preserve" width="150px" height="150px" version="1.1" style="shape-rendering:geometricPrecision; text-rendering:geometricPrecision; image-rendering:optimizeQuality; fill-rule:evenodd; clip-rule:evenodd"
viewBox="0 0 11.41 11.41"
 xmlns:xlink="http://www.w3.org/1999/xlink"
 xmlns:xodm="http://www.corel.com/coreldraw/odm/2003">
 <defs>
  <style type="text/css">
   <![CDATA[
    .fil4 {fill:#FCB758}
    .fil5 {fill:#F9A550}
    .fil3 {fill:#E2803E}
    .fil2 {fill:#D91111}
    .fil1 {fill:#D91111;fill-rule:nonzero}
    .fil0 {fill:#ED5151;fill-rule:nonzero}
   ]]>
  </style>
 </defs>
 <g id="Layer_x0020_1">
  <metadata id="CorelCorpID_0Corel-Layer"/>
  <g id="_2142200140160">
   <path class="fil0" d="M11.41 8.68c0,1.51 -1.22,2.73 -2.73,2.73l-0.02 0 -2.7 0 -3.22 0c-1.51,0 -2.74,-1.22 -2.74,-2.73l0 -5.94c0,-1.51 1.23,-2.74 2.74,-2.74l5.94 0c1.51,0 2.73,1.23 2.73,2.74l0 5.94z"/>
   <path class="fil1" d="M11.41 8.68c0,1.51 -1.22,2.73 -2.73,2.73l-0.02 0 -1.37 0 -5.19 -3.25 0.32 0 6.74 0 0.32 0 0 -4.03 1.93 1.66 0 2.89z"/>
   <g>
    <polygon class="fil2" points="2.42,3.88 5.95,6.25 9.48,3.88 5.95,6.64 "/>
    <polygon class="fil2" points="5.95,6.34 9.48,3.88 2.42,3.88 "/>
    <polygon class="fil3" points="2.1,3.88 5.63,6.25 9.16,3.88 5.63,6.64 "/>
    <g>
     <polygon class="fil2" points="2.42,8.16 9.48,8.16 9.48,3.88 2.42,3.88 "/>
     <polygon class="fil4" points="2.1,8.16 9.16,8.16 9.16,3.88 2.1,3.88 "/>
     <polygon class="fil5" points="5.63,6.34 9.16,3.88 2.1,3.88 "/>
    </g>
   </g>
  </g>
 </g>
</svg>
