<?xml version="1.0" encoding="UTF-8"?>
<!DOCTYPE svg PUBLIC "-//W3C//DTD SVG 1.1//EN" "http://www.w3.org/Graphics/SVG/1.1/DTD/svg11.dtd">
<!-- Creator: CorelDRAW -->
<svg xmlns="http://www.w3.org/2000/svg" xml:space="preserve" width="150px" height="150px" version="1.1" style="shape-rendering:geometricPrecision; text-rendering:geometricPrecision; image-rendering:optimizeQuality; fill-rule:evenodd; clip-rule:evenodd"
viewBox="0 0 9.24 9.24"
 xmlns:xlink="http://www.w3.org/1999/xlink"
 xmlns:xodm="http://www.corel.com/coreldraw/odm/2003">
 <defs>
  <style type="text/css">
   <![CDATA[
    .fil2 {fill:#60A2A2;fill-rule:nonzero}
    .fil4 {fill:#C45F43;fill-rule:nonzero}
    .fil1 {fill:#D91111;fill-rule:nonzero}
    .fil5 {fill:#E0DBC0;fill-rule:nonzero}
    .fil3 {fill:#EBCB42;fill-rule:nonzero}
    .fil0 {fill:#ED5151;fill-rule:nonzero}
   ]]>
  </style>
 </defs>
 <g id="Layer_x0020_1">
  <metadata id="CorelCorpID_0Corel-Layer"/>
  <g id="_2141697470000">
   <path class="fil0" d="M9.24 7.02c0,1.23 -0.99,2.22 -2.22,2.22l-0.01 0 -2.18 0 -2.61 0c-1.23,0 -2.22,-0.99 -2.22,-2.22l0 -4.8c0,-1.23 0.99,-2.22 2.22,-2.22l4.8 0c1.23,0 2.22,0.99 2.22,2.22l0 4.8z"/>
   <path class="fil1" d="M9.24 7.02c0,1.23 -0.99,2.22 -2.22,2.22l-0.01 0 -2.18 0 -1.88 0 -0.49 -2.93 4.06 -1.62 2.72 1.72 0 0.61z"/>
   <path class="fil2" d="M2.79 4.62l4.79 0.09c0.48,0.01 0.78,0.37 0.6,0.7l-0.68 1.22c-0.12,0.21 -0.41,0.35 -0.71,0.35l-4.76 -0.09c-0.47,-0.01 -0.78,-0.35 -0.6,-0.69l0.64 -1.22c0.11,-0.22 0.41,-0.37 0.72,-0.36z"/>
   <path class="fil3" d="M2.79 4.59l4.79 0.04c0.49,0.01 0.79,0.32 0.6,0.62l-0.69 1.09c-0.12,0.2 -0.41,0.33 -0.72,0.32l-4.76 -0.03c-0.48,0 -0.78,-0.31 -0.6,-0.61l0.65 -1.1c0.12,-0.2 0.42,-0.33 0.73,-0.33z"/>
   <path class="fil4" d="M5.98 5.62c0,0.24 -0.48,0.44 -1.08,0.44 -0.59,0 -1.07,-0.2 -1.07,-0.44 0,-0.25 0.48,-0.45 1.07,-0.45 0.6,0 1.08,0.2 1.08,0.45z"/>
   <path class="fil2" d="M6.1 3.06l0 0c0.05,-0.15 0.08,-0.31 0.08,-0.47 0,-0.78 -0.63,-1.41 -1.41,-1.41 -0.78,0 -1.41,0.63 -1.41,1.41 0,0.21 0.05,0.41 0.13,0.58l-0.01 0 1.3 2.42c0.05,0.09 0.2,0.09 0.25,-0.01l0.99 -2.35c0.01,0 0.01,0 0.01,0 0.03,-0.06 0.05,-0.11 0.07,-0.17l0 0z"/>
   <path class="fil5" d="M5.77 2.57c0,0.55 -0.45,1 -1,1 -0.55,0 -1,-0.45 -1,-1 0,-0.55 0.45,-1 1,-1 0.55,0 1,0.45 1,1z"/>
   <path class="fil2" d="M5.28 2.57c0,0.28 -0.23,0.51 -0.51,0.51 -0.28,0 -0.51,-0.23 -0.51,-0.51 0,-0.28 0.23,-0.51 0.51,-0.51 0.28,0 0.51,0.23 0.51,0.51z"/>
  </g>
 </g>
</svg>
