<?xml version="1.0" encoding="UTF-8"?>
<!DOCTYPE svg PUBLIC "-//W3C//DTD SVG 1.1//EN" "http://www.w3.org/Graphics/SVG/1.1/DTD/svg11.dtd">
<!-- Creator: CorelDRAW -->
<svg xmlns="http://www.w3.org/2000/svg" xml:space="preserve" width="150px" height="150px" version="1.1" style="shape-rendering:geometricPrecision; text-rendering:geometricPrecision; image-rendering:optimizeQuality; fill-rule:evenodd; clip-rule:evenodd"
viewBox="0 0 9.22 9.22"
 xmlns:xlink="http://www.w3.org/1999/xlink"
 xmlns:xodm="http://www.corel.com/coreldraw/odm/2003">
 <defs>
  <style type="text/css">
   <![CDATA[
    .fil4 {fill:#58595B;fill-rule:nonzero}
    .fil1 {fill:#D91111;fill-rule:nonzero}
    .fil0 {fill:#ED5151;fill-rule:nonzero}
    .fil3 {fill:#FCFDFF;fill-rule:nonzero}
    .fil2 {fill:white;fill-rule:nonzero}
   ]]>
  </style>
 </defs>
 <g id="Layer_x0020_1">
  <metadata id="CorelCorpID_0Corel-Layer"/>
  <g id="_2141886389344">
   <path class="fil0" d="M9.22 7.01c0,1.22 -0.99,2.21 -2.21,2.21l-4.8 0c-1.22,0 -2.21,-0.99 -2.21,-2.21l0 -4.8c0,-1.22 0.99,-2.21 2.21,-2.21l4.8 0c1.22,0 2.21,0.99 2.21,2.21l0 4.8z"/>
   <path class="fil1" d="M6.99 9.22l-2.17 0 -2.61 -1.98 0 -2.82 -0.74 -0.51 3.12 -1.79 0.58 0.33 0 -0.5 0.82 0 3.22 2.45 0 2.61c0,1.22 -0.99,2.21 -2.22,2.21z"/>
   <polygon class="fil2" points="6.02,2.94 6.02,1.97 5.2,1.97 5.2,2.47 4.61,2.13 1.49,3.93 7.73,3.93 "/>
   <polygon class="fil2" points="4.61,2.41 5.44,2.88 5.44,2.21 5.44,2.21 5.78,2.21 5.78,3.08 6.83,3.68 2.4,3.68 "/>
   <polygon class="fil3" points="2.24,7.25 4.17,7.25 4.17,5.99 4.17,5.99 4.79,5.99 4.79,5.99 4.79,7.25 6.95,7.25 6.95,4.11 2.24,4.11 "/>
   <polygon class="fil2" points="2.48,4.35 6.71,4.35 6.71,7.01 5.03,7.01 5.03,7.01 5.03,5.75 3.93,5.75 3.93,7.01 2.48,7.01 "/>
   <polygon class="fil4" points="5.31,5.45 6.23,5.45 6.23,4.59 5.31,4.59 "/>
   <polygon class="fil4" points="2.71,5.45 3.63,5.45 3.63,4.59 2.71,4.59 "/>
  </g>
 </g>
</svg>
