<?xml version="1.0" encoding="UTF-8"?>
<!DOCTYPE svg PUBLIC "-//W3C//DTD SVG 1.1//EN" "http://www.w3.org/Graphics/SVG/1.1/DTD/svg11.dtd">
<!-- Creator: CorelDRAW -->
<svg xmlns="http://www.w3.org/2000/svg" xml:space="preserve" width="150px" height="150px" version="1.1" style="shape-rendering:geometricPrecision; text-rendering:geometricPrecision; image-rendering:optimizeQuality; fill-rule:evenodd; clip-rule:evenodd"
viewBox="0 0 16.76 16.76"
 xmlns:xlink="http://www.w3.org/1999/xlink"
 xmlns:xodm="http://www.corel.com/coreldraw/odm/2003">
 <defs>
  <style type="text/css">
   <![CDATA[
    .fil0 {fill:white;fill-rule:nonzero}
   ]]>
  </style>
 </defs>
 <g id="Layer_x0020_1">
  <metadata id="CorelCorpID_0Corel-Layer"/>
  <g id="_2705870126176">
   <path class="fil0" d="M8.38 1.35c-3.88,0 -7.03,3.15 -7.03,7.03 0,3.87 3.15,7.02 7.03,7.02 3.87,0 7.02,-3.15 7.02,-7.02 0,-3.88 -3.15,-7.03 -7.02,-7.03zm0 15.41c-4.62,0 -8.38,-3.76 -8.38,-8.38 0,-4.62 3.76,-8.38 8.38,-8.38 4.62,0 8.38,3.76 8.38,8.38 0,4.62 -3.76,8.38 -8.38,8.38z"/>
   <path class="fil0" d="M8.89 10.85l-1.02 0 0.32 -0.96c-0.2,-0.07 -0.35,-0.27 -0.35,-0.51 0,-0.3 0.24,-0.54 0.54,-0.54 0.3,0 0.54,0.24 0.54,0.54 0,0.24 -0.15,0.44 -0.36,0.51l0.33 0.96zm-2.01 -4.77l0 0.01c0.01,-0.82 0.68,-1.48 1.5,-1.48 0.81,0 1.48,0.66 1.49,1.48l0 -0.01 0 1.91 -2.99 0 0 -1.91zm4.62 1.91l-0.68 0 0 -1.91 0 0c-0.01,-1.34 -1.1,-2.42 -2.44,-2.42 -1.35,0 -2.44,1.08 -2.45,2.42l0 0 0 1.91 -0.68 0c-0.15,0 -0.27,0.12 -0.27,0.27l0 3.8c0,0.15 0.12,0.27 0.27,0.27l6.25 0c0.15,0 0.27,-0.12 0.27,-0.27l0 -3.8c0,-0.15 -0.12,-0.27 -0.27,-0.27z"/>
  </g>
 </g>
</svg>
