<?xml version="1.0" encoding="UTF-8"?>
<!DOCTYPE svg PUBLIC "-//W3C//DTD SVG 1.1//EN" "http://www.w3.org/Graphics/SVG/1.1/DTD/svg11.dtd">
<!-- Creator: CorelDRAW -->
<svg xmlns="http://www.w3.org/2000/svg" xml:space="preserve" width="135px" height="150px" version="1.1" style="shape-rendering:geometricPrecision; text-rendering:geometricPrecision; image-rendering:optimizeQuality; fill-rule:evenodd; clip-rule:evenodd"
viewBox="0 0 5.48 6.13"
 xmlns:xlink="http://www.w3.org/1999/xlink"
 xmlns:xodm="http://www.corel.com/coreldraw/odm/2003">
 <defs>
  <style type="text/css">
   <![CDATA[
    .fil1 {fill:#60A2A2;fill-rule:nonzero}
    .fil0 {fill:#ABD5CB;fill-rule:nonzero}
   ]]>
  </style>
 </defs>
 <g id="Layer_x0020_1">
  <metadata id="CorelCorpID_0Corel-Layer"/>
  <g id="_2141696869168">
   <path class="fil0" d="M0.38 1.81c0.23,-1.02 1.25,-1.66 2.27,-1.43 1.02,0.24 1.65,1.26 1.42,2.28 -0.23,1.02 -1.25,1.65 -2.27,1.42 -1.02,-0.24 -1.66,-1.25 -1.42,-2.27z"/>
   <path class="fil1" d="M5.37 5.83l-0.27 0.23c-0.13,0.1 -0.33,0.09 -0.43,-0.04l-1.49 -1.8c-0.11,-0.13 -0.09,-0.32 0.04,-0.43l0.27 -0.23c0.13,-0.1 0.33,-0.09 0.44,0.04l1.48 1.8c0.11,0.13 0.09,0.32 -0.04,0.43z"/>
   <path class="fil1" d="M2.21 0.38c-0.34,0 -0.67,0.1 -0.97,0.28 -0.41,0.26 -0.7,0.67 -0.81,1.14 -0.11,0.48 -0.03,0.97 0.23,1.38 0.26,0.42 0.67,0.7 1.14,0.81 0.48,0.11 0.97,0.03 1.38,-0.23 0.42,-0.26 0.7,-0.66 0.81,-1.14 0.11,-0.47 0.03,-0.96 -0.23,-1.38 -0.26,-0.41 -0.66,-0.7 -1.14,-0.81 -0.14,-0.03 -0.27,-0.05 -0.41,-0.05zm0.01 4.04c-0.17,0 -0.34,-0.01 -0.5,-0.05 -0.58,-0.13 -1.07,-0.48 -1.38,-0.98 -0.32,-0.51 -0.42,-1.1 -0.28,-1.67l0 0c0.13,-0.58 0.48,-1.07 0.98,-1.38 0.5,-0.32 1.09,-0.42 1.67,-0.28 0.57,0.13 1.06,0.48 1.38,0.98 0.31,0.5 0.41,1.09 0.28,1.67 -0.13,0.57 -0.48,1.06 -0.98,1.38 -0.36,0.22 -0.76,0.33 -1.17,0.33z"/>
  </g>
 </g>
</svg>
