<?xml version="1.0" encoding="UTF-8"?>
<!DOCTYPE svg PUBLIC "-//W3C//DTD SVG 1.1//EN" "http://www.w3.org/Graphics/SVG/1.1/DTD/svg11.dtd">
<!-- Creator: CorelDRAW -->
<svg xmlns="http://www.w3.org/2000/svg" xml:space="preserve" width="150px" height="150px" version="1.1" style="shape-rendering:geometricPrecision; text-rendering:geometricPrecision; image-rendering:optimizeQuality; fill-rule:evenodd; clip-rule:evenodd"
viewBox="0 0 7.12 7.12"
 xmlns:xlink="http://www.w3.org/1999/xlink"
 xmlns:xodm="http://www.corel.com/coreldraw/odm/2003">
 <defs>
  <style type="text/css">
   <![CDATA[
    .fil5 {fill:#0C0A0A;fill-rule:nonzero}
    .fil10 {fill:#113754;fill-rule:nonzero}
    .fil2 {fill:#184F78;fill-rule:nonzero}
    .fil1 {fill:#46804D;fill-rule:nonzero}
    .fil0 {fill:#64B66E;fill-rule:nonzero}
    .fil9 {fill:#6B4A3B;fill-rule:nonzero}
    .fil7 {fill:#B8271F;fill-rule:nonzero}
    .fil3 {fill:#E73127;fill-rule:nonzero}
    .fil6 {fill:#EDEDED;fill-rule:nonzero}
    .fil8 {fill:#F2F2F2;fill-rule:nonzero}
    .fil4 {fill:white;fill-rule:nonzero}
   ]]>
  </style>
 </defs>
 <g id="Layer_x0020_1">
  <metadata id="CorelCorpID_0Corel-Layer"/>
  <g id="_2573668274048">
   <path class="fil0" d="M7.12 3.56c0,1.97 -1.59,3.56 -3.56,3.56 -1.97,0 -3.56,-1.59 -3.56,-3.56 0,-1.97 1.59,-3.56 3.56,-3.56 1.97,0 3.56,1.59 3.56,3.56z"/>
   <path class="fil1" d="M3.56 7.12c0,0 0,0 0,0 -0.08,0 -0.16,0 -0.24,-0.01 -0.35,-0.34 -1.17,-1.16 -1.39,-1.38 0.07,0.05 0.15,0.09 0.24,0.09 0.01,0 0.01,0 0.02,0 0.23,0 0.41,-0.25 0.33,-0.49 -0.07,-0.2 -0.1,-0.22 -0.1,-0.22 -0.01,0 -0.01,0 -0.01,0 0,0 0.03,-0.03 0.06,-0.07 0.03,-0.04 0.03,-0.12 0,-0.17l-0.06 -0.09c0,0 0.04,-0.03 0.07,-0.08 0.04,-0.04 0.04,-0.11 0.01,-0.16l-0.07 -0.08c0,0 0.02,-0.03 0.05,-0.07 0.03,-0.05 0.01,-0.12 -0.03,-0.17l-0.08 -0.08 -0.03 -0.42 -0.55 -0.01c0,0 0.17,1.28 0.06,1.59 0,-0.01 0,-0.02 0.01,-0.03l0 -0.01c0,-0.01 0,-0.02 0,-0.02l0.01 -0.03 0 -0.02c0,-0.01 0,-0.01 0,-0.02 0,-0.01 0.01,-0.02 0.01,-0.02 0,-0.01 0,-0.02 0,-0.03 0,-0.01 0,-0.02 0,-0.03 0,-0.01 0,-0.02 0,-0.03 0,0 0,-0.01 0,-0.02 0,-0.01 0,-0.02 0,-0.03 0.01,-0.01 0.01,-0.02 0.01,-0.03 0,-0.01 0,-0.02 0,-0.04 0,0 0,-0.01 0,-0.02 0,-0.01 0,-0.03 0,-0.04 0,-0.01 0,-0.02 0,-0.03 0,-0.01 0,-0.02 -0.01,-0.04l0 0 0 0 0 -0.01 0 -0.01c0,-0.02 0,-0.03 0,-0.04l0 -0.01 -0.9 -0.83 0 -0.14 -0.02 -0.01c-0.1,-0.09 -0.18,-0.23 -0.18,-0.38 0,-0.16 0.08,-0.3 0.2,-0.39l0 -0.15 1.44 0 0 0.01 3.04 -1.29 0.21 0.13 0.37 -0.13 0.93 0.94c0.1,0.31 0.15,0.63 0.16,0.97l0 0c0,0 0,0.01 0,0.01 0,0 0,0 0,0 0,0 0,0 0,0 0,0 0,0 0,0 0,0.01 0,0.01 0,0.01 0,0 0,0 0,0 0,0 0,0 0,0.01 0,0 0,0 0,0 0,0 0,0 0,0 0,0 0,0 0,0 0,0 0,0 0,0.01 0,0 0,0 0,0 0,0 0,0 0,0 0,0 0,0 0,0 0,0.01 0,0.01 0,0.01 0,0 0,0 0,0 0,0 0,0 0,0 0,0 0,0.01 0,0.01 0,0 0,0 0,0 0,0 0,0 0,0 0,0 0,0 0,0 0,0.01 0,0.01 0,0.01 0,0 0,0 0,0 0,0 0,0 0,0 0,0 0,0 0,0 0,0.01 0,0.01 0,0.01 0,0 0,0 0,0 0,0 0,0 0,0 0,0.01 0,0.01 0,0.01 0,0 0,0 0,0l0 0c0,1.97 -1.59,3.56 -3.56,3.56zm-1.73 -1.81c0,0 0,-0.01 0,-0.01l0 0c0,0 0,0.01 0,0.01z"/>
   <path class="fil2" d="M1.83 5.3c-0.11,0.3 0.1,0.5 0.34,0.52 0.23,0.02 0.44,-0.25 0.35,-0.49 -0.09,-0.24 -0.11,-0.22 -0.11,-0.22 0,0 0.03,-0.03 0.06,-0.07 0.03,-0.04 0.03,-0.12 0,-0.17l-0.06 -0.09c0,0 0.04,-0.03 0.07,-0.08 0.04,-0.04 0.04,-0.11 0.01,-0.16l-0.07 -0.08c0,0 0.02,-0.03 0.05,-0.07 0.03,-0.05 0.01,-0.12 -0.03,-0.17l-0.08 -0.08 -0.03 -0.42 -0.55 -0.01c0,0 0.17,1.3 0.05,1.59z"/>
   <polygon class="fil3" points="5.04,1.9 6.03,1.56 6.03,5.13 5.16,4.8 4.98,4.39 "/>
   <polygon class="fil4" points="5.45,5.13 2.18,3.81 2.17,2.95 5.45,1.56 "/>
   <path class="fil5" d="M1.76 3.38c0,0.27 -0.22,0.49 -0.49,0.49 -0.27,0 -0.5,-0.22 -0.5,-0.49 0,-0.28 0.23,-0.5 0.5,-0.5 0.27,0 0.49,0.22 0.49,0.5z"/>
   <path class="fil6" d="M5.45 1.7l0 -0.14 -3.28 1.39 0.01 0.86 1.18 0.48c1.36,-0.76 1.9,-1.95 2.09,-2.59z"/>
   <polygon class="fil3" points="0.97,3.91 2.41,3.91 2.41,2.84 0.97,2.84 "/>
   <polygon class="fil7" points="0.97,3.91 2.41,3.91 2.41,3.56 0.97,3.56 "/>
   <polygon class="fil8" points="1.78,3.78 2.17,3.78 2.17,3.69 1.78,3.69 "/>
   <polygon class="fil9" points="1.78,3.81 2.17,3.81 2.17,3.78 1.78,3.78 "/>
   <path class="fil7" d="M1.36 3.03c0,0.04 -0.04,0.08 -0.09,0.08 -0.05,0 -0.09,-0.04 -0.09,-0.08 0,-0.05 0.04,-0.09 0.09,-0.09 0.05,0 0.09,0.04 0.09,0.09z"/>
   <path class="fil10" d="M2.12 5.82c-0.21,-0.05 -0.39,-0.24 -0.29,-0.52 0.07,-0.15 0.05,-0.59 0.02,-0.97 0.26,0.22 0.45,0.65 0.27,1.49z"/>
   <polygon class="fil7" points="5.45,4.91 5.66,4.99 5.66,1.69 5.45,1.76 "/>
  </g>
 </g>
</svg>
