<?xml version="1.0" encoding="UTF-8"?>
<!DOCTYPE svg PUBLIC "-//W3C//DTD SVG 1.1//EN" "http://www.w3.org/Graphics/SVG/1.1/DTD/svg11.dtd">
<!-- Creator: CorelDRAW -->
<svg xmlns="http://www.w3.org/2000/svg" xml:space="preserve" width="150px" height="150px" version="1.1" style="shape-rendering:geometricPrecision; text-rendering:geometricPrecision; image-rendering:optimizeQuality; fill-rule:evenodd; clip-rule:evenodd"
viewBox="0 0 23.96 23.96"
 xmlns:xlink="http://www.w3.org/1999/xlink"
 xmlns:xodm="http://www.corel.com/coreldraw/odm/2003">
 <defs>
  <style type="text/css">
   <![CDATA[
    .fil6 {fill:#0C0A0A;fill-rule:nonzero}
    .fil11 {fill:#113754;fill-rule:nonzero}
    .fil3 {fill:#184F78;fill-rule:nonzero}
    .fil0 {fill:#598EF7;fill-rule:nonzero}
    .fil10 {fill:#6B4A3B;fill-rule:nonzero}
    .fil1 {fill:#B3B3B3;fill-rule:nonzero}
    .fil8 {fill:#B8271F;fill-rule:nonzero}
    .fil2 {fill:#CE5EFD;fill-rule:nonzero}
    .fil4 {fill:#E73127;fill-rule:nonzero}
    .fil7 {fill:#EDEDED;fill-rule:nonzero}
    .fil9 {fill:#F2F2F2;fill-rule:nonzero}
    .fil5 {fill:white;fill-rule:nonzero}
   ]]>
  </style>
 </defs>
 <g id="Layer_x0020_1">
  <metadata id="CorelCorpID_0Corel-Layer"/>
  <g id="_2381641553776">
   <path class="fil0" d="M23.96 11.98c0,6.62 -5.36,11.98 -11.98,11.98 -6.62,0 -11.98,-5.36 -11.98,-11.98 0,-6.62 5.36,-11.98 11.98,-11.98 6.62,0 11.98,5.36 11.98,11.98z"/>
   <path class="fil1" d="M11.98 23.96c0,0 -0.01,0 -0.01,0 0,0 0.01,0 0.01,0 6.62,0 11.98,-5.36 11.98,-11.98l0 0c0,6.62 -5.36,11.98 -11.98,11.98zm11.98 -11.98c0,-0.01 0,-0.01 0,-0.02 0,0.01 0,0.01 0,0.02zm0 -0.02c0,-0.01 0,-0.01 0,-0.02 0,0.01 0,0.01 0,0.02zm0 -0.02c0,-0.01 0,-0.01 0,-0.02 0,0.01 0,0.01 0,0.02zm0 -0.02c0,0 0,-0.01 0,-0.02 0,0.01 0,0.02 0,0.02zm0 -0.02c0,-0.01 0,-0.01 0,-0.01 0,0 0,0 0,0.01zm0 -0.02c0,0 0,-0.01 0,-0.01 0,0 0,0.01 0,0.01zm0 -0.02c0,0 0,-0.01 0,-0.01 0,0 0,0.01 0,0.01zm0 -0.02c0,0 0,-0.01 0,-0.01 0,0 0,0.01 0,0.01zm0 -0.02c0,0 0,-0.01 0,-0.01 0,0 0,0.01 0,0.01zm0 -0.02c0,0 0,-0.01 0,-0.01 0,0 0,0.01 0,0.01zm0 -0.02c0,0 0,-0.01 0,-0.01 0,0 0,0.01 0,0.01zm0 -0.02c0,0 0,0 0,0 0,0 0,0 0,0zm0 -0.02c0,0 0,-0.01 0,-0.01 0,0 0,0.01 0,0.01zm0 -0.02c0,0 0,0 0,0 0,0 0,0 0,0zm0 -0.02c0,0 0,0 0,0 0,0 0,0 0,0zm0 -0.04l0 0z"/>
   <path class="fil2" d="M11.98 23.96c0,0 -0.01,0 -0.01,0 -0.28,0 -0.55,-0.01 -0.81,-0.03 -1.17,-1.16 -3.92,-3.91 -4.66,-4.66 0.22,0.18 0.5,0.29 0.79,0.32 0.03,0 0.06,0 0.09,0 0.74,0 1.38,-0.87 1.1,-1.66 -0.25,-0.69 -0.34,-0.74 -0.36,-0.74 0,0 0,0 0,0 0,0 0.09,-0.11 0.19,-0.25 0.11,-0.13 0.11,-0.38 0,-0.55l-0.19 -0.3c0,0 0.1,-0.12 0.24,-0.27 0.13,-0.15 0.13,-0.39 0.01,-0.54l-0.23 -0.26c0,0 0.07,-0.12 0.16,-0.27 0.1,-0.15 0.06,-0.39 -0.09,-0.55l-0.26 -0.28 -0.11 -1.41 -1.84 -0.04c0,0 0.56,4.31 0.18,5.35 0.01,-0.03 0.02,-0.06 0.03,-0.09l0.01 -0.05c0,-0.02 0.01,-0.04 0.02,-0.07l0.01 -0.07 0.01 -0.07c0,-0.03 0.01,-0.06 0.01,-0.09 0,-0.02 0.01,-0.05 0.01,-0.07 0,-0.03 0,-0.06 0.01,-0.09 0,-0.03 0,-0.06 0,-0.09 0.01,-0.03 0.01,-0.06 0.01,-0.1 0,-0.03 0,-0.05 0,-0.08 0,-0.04 0.01,-0.08 0.01,-0.12 0,-0.02 0,-0.05 0,-0.08 0,-0.04 0,-0.08 0,-0.12 0,-0.03 0,-0.06 0,-0.09 0,-0.04 0,-0.08 0,-0.13 0,-0.03 0,-0.05 0,-0.08 0,-0.05 0,-0.09 0,-0.14l0 0 0 0 0 -0.05 -0.01 -0.04c0,-0.04 0,-0.09 0,-0.13l0 -0.02 -3.04 -2.81 0 -0.45 -0.05 -0.06c-0.37,-0.3 -0.6,-0.76 -0.6,-1.27 0,-0.54 0.25,-1.01 0.65,-1.32l0 -0.48 4.83 0 0 0.01 10.24 -4.33 0.71 0.44 1.23 -0.42 3.15 3.15c0.32,1.03 0.51,2.12 0.54,3.25l0 0c0,0.01 0,0.03 0,0.04 0,0 0,0 0,0 0,0.01 0,0.01 0,0.02 0,0 0,0 0,0 0,0 0,0.01 0,0.01 0,0 0,0.01 0,0.01 0,0 0,0.01 0,0.02 0,0 0,0 0,0 0,0.01 0,0.01 0,0.01 0,0 0,0.01 0,0.01 0,0 0,0.01 0,0.01 0,0 0,0.01 0,0.01 0,0 0,0.01 0,0.01 0,0 0,0.01 0,0.01 0,0 0,0.01 0,0.01 0,0 0,0.01 0,0.01 0,0 0,0 0,0.01 0,0 0,0.01 0,0.01 0,0 0,0 0,0.01 0,0 0,0.01 0,0.01 0,0 0,0 0,0.01 0,0 0,0 0,0.01 0,0 0,0 0,0 0,0.01 0,0.02 0,0.02 0,0 0,0 0,0 0,0.01 0,0.01 0,0.02 0,0 0,0 0,0 0,0.01 0,0.01 0,0.02 0,0 0,0 0,0 0,0.01 0,0.01 0,0.02l0 0c0,6.62 -5.36,11.98 -11.98,11.98zm-5.81 -6.11c0,-0.01 0,-0.01 0,-0.01l0 0c0,0 0,0 0,0.01z"/>
   <path class="fil3" d="M6.17 17.84c-0.4,1 0.33,1.68 1.12,1.75 0.78,0.07 1.48,-0.84 1.19,-1.66 -0.29,-0.82 -0.36,-0.74 -0.36,-0.74 0,0 0.09,-0.11 0.19,-0.25 0.11,-0.13 0.11,-0.38 0,-0.55l-0.19 -0.3c0,0 0.1,-0.12 0.24,-0.27 0.13,-0.15 0.13,-0.39 0.01,-0.54l-0.23 -0.26c0,0 0.07,-0.12 0.16,-0.27 0.1,-0.15 0.06,-0.39 -0.09,-0.55l-0.26 -0.28 -0.11 -1.41 -1.84 -0.04c0,0 0.57,4.37 0.17,5.37z"/>
   <polygon class="fil4" points="16.96,6.37 20.27,5.26 20.27,17.25 17.34,16.16 16.73,14.78 "/>
   <polygon class="fil5" points="18.33,17.25 7.34,12.83 7.29,9.91 18.33,5.24 "/>
   <path class="fil6" d="M5.92 11.36c0,0.91 -0.74,1.66 -1.66,1.66 -0.91,0 -1.65,-0.75 -1.65,-1.66 0,-0.92 0.74,-1.66 1.65,-1.66 0.92,0 1.66,0.74 1.66,1.66z"/>
   <path class="fil7" d="M18.33 5.72l0 -0.48 -11.04 4.67 0.05 2.92 3.96 1.59c4.59,-2.56 6.38,-6.55 7.03,-8.7z"/>
   <polygon class="fil4" points="3.26,13.14 8.09,13.14 8.09,9.56 3.26,9.56 "/>
   <polygon class="fil8" points="3.26,13.14 8.09,13.14 8.09,11.98 3.26,11.98 "/>
   <polygon class="fil9" points="5.97,12.72 7.29,12.72 7.29,12.42 5.97,12.42 "/>
   <polygon class="fil10" points="5.97,12.82 7.29,12.82 7.29,12.72 5.97,12.72 "/>
   <path class="fil8" d="M4.56 10.18c0,0.16 -0.13,0.29 -0.3,0.29 -0.16,0 -0.29,-0.13 -0.29,-0.29 0,-0.17 0.13,-0.3 0.29,-0.3 0.17,0 0.3,0.13 0.3,0.3z"/>
   <path class="fil11" d="M7.13 19.56c-0.72,-0.14 -1.33,-0.79 -0.96,-1.72 0.21,-0.53 0.15,-1.99 0.05,-3.26 0.87,0.73 1.52,2.17 0.91,4.98z"/>
   <polygon class="fil8" points="18.33,16.53 19.04,16.79 19.04,5.68 18.33,5.91 "/>
  </g>
 </g>
</svg>
