<?xml version="1.0" encoding="UTF-8"?>
<!DOCTYPE svg PUBLIC "-//W3C//DTD SVG 1.1//EN" "http://www.w3.org/Graphics/SVG/1.1/DTD/svg11.dtd">
<!-- Creator: CorelDRAW -->
<svg xmlns="http://www.w3.org/2000/svg" xml:space="preserve" width="150px" height="212px" version="1.1" style="shape-rendering:geometricPrecision; text-rendering:geometricPrecision; image-rendering:optimizeQuality; fill-rule:evenodd; clip-rule:evenodd"
viewBox="0 0 8.8 12.43"
 xmlns:xlink="http://www.w3.org/1999/xlink"
 xmlns:xodm="http://www.corel.com/coreldraw/odm/2003">
 <defs>
  <style type="text/css">
   <![CDATA[
    .fil0 {fill:#262323}
    .fil1 {fill:#A33171}
   ]]>
  </style>
 </defs>
 <g id="Layer_x0020_1">
  <metadata id="CorelCorpID_0Corel-Layer"/>
  <g id="_2381199378256">
   <path class="fil0" d="M6.71 6.07c-0.35,0.52 -0.92,0.91 -1.59,1.07 -0.23,0.06 -0.47,0.09 -0.72,0.09 -0.25,0 -0.49,-0.03 -0.72,-0.09 -0.67,-0.16 -1.23,-0.55 -1.59,-1.07 -1.25,0.76 -2.09,2.13 -2.09,3.71l0 1.05c1.19,1 2.72,1.6 4.4,1.6 1.68,0 3.21,-0.6 4.4,-1.6l0 -1.05c0,-1.58 -0.84,-2.95 -2.09,-3.71z"/>
   <path class="fil1" d="M4.4 0.51c-1.35,0 -2.45,0.99 -2.45,2.2l0 1.49c0,0.42 0.13,0.81 0.36,1.14 0.32,0.47 0.83,0.83 1.44,0.98 0.21,0.05 0.42,0.08 0.65,0.08 0.23,0 0.45,-0.03 0.65,-0.08 0.61,-0.15 1.12,-0.51 1.44,-0.98 0.23,-0.33 0.36,-0.72 0.36,-1.14l0 -1.49c0,-1.21 -1.1,-2.2 -2.45,-2.2z"/>
   <path class="fil0" d="M6.91 2.59c-0.09,0 -0.16,0.08 -0.16,0.16l0 1.46c0,0.08 0.07,0.16 0.16,0.16 0.09,0 0.16,-0.08 0.16,-0.16l0 -1.46c0,-0.08 -0.07,-0.16 -0.16,-0.16z"/>
   <path class="fil0" d="M1.89 2.59c-0.09,0 -0.16,0.08 -0.16,0.16l0 1.46c0,0.08 0.07,0.16 0.16,0.16 0.09,0 0.16,-0.08 0.16,-0.16l0 -1.46c0,-0.08 -0.07,-0.16 -0.16,-0.16z"/>
   <path class="fil0" d="M1.34 2.59c-0.16,0 -0.29,0.08 -0.29,0.16l0 1.46c0,0.08 0.13,0.16 0.29,0.16 0.17,0 0.3,-0.08 0.3,-0.16l0 -1.46c0,-0.08 -0.13,-0.16 -0.3,-0.16z"/>
   <path class="fil0" d="M7.47 2.59c-0.17,0 -0.3,0.08 -0.3,0.16l0 1.46c0,0.08 0.13,0.16 0.3,0.16 0.16,0 0.29,-0.08 0.29,-0.16l0 -1.46c0,-0.08 -0.13,-0.16 -0.29,-0.16z"/>
   <path class="fil1" d="M7.09 1.47c-0.12,-0.29 -0.29,-0.55 -0.51,-0.77 -0.22,-0.21 -0.48,-0.39 -0.77,-0.51 -0.28,-0.12 -0.6,-0.19 -0.93,-0.19l-0.24 0 -0.71 0c-0.33,0 -0.65,0.07 -0.93,0.19 -0.29,0.12 -0.55,0.3 -0.77,0.51 -0.22,0.22 -0.39,0.48 -0.51,0.77 -0.13,0.29 -0.19,0.61 -0.19,0.94l0 0.3 0 -0.65 0 0.94c0,0.1 0.07,0.18 0.17,0.18 0.1,0 0.17,-0.08 0.17,-0.18l0 -0.94 0 0.65 0 -0.3c0,-0.29 0.06,-0.56 0.17,-0.8 0.1,-0.25 0.25,-0.47 0.44,-0.66 0.18,-0.19 0.41,-0.34 0.65,-0.44 0.25,-0.1 0.52,-0.16 0.8,-0.16l0.95 0c0.28,0 0.55,0.06 0.8,0.16 0.24,0.1 0.47,0.25 0.65,0.44 0.19,0.19 0.34,0.41 0.44,0.66 0.11,0.24 0.17,0.51 0.17,0.8l0 0.3 0 -0.65 0 0.94c0,0.1 0.07,0.18 0.17,0.18 0.1,0 0.17,-0.08 0.17,-0.18l0 -0.94 0 0.65 0 -0.3c0,-0.33 -0.06,-0.65 -0.19,-0.94z"/>
  </g>
 </g>
</svg>
