<?xml version="1.0" encoding="UTF-8"?>
<!DOCTYPE svg PUBLIC "-//W3C//DTD SVG 1.1//EN" "http://www.w3.org/Graphics/SVG/1.1/DTD/svg11.dtd">
<!-- Creator: CorelDRAW -->
<svg xmlns="http://www.w3.org/2000/svg" xml:space="preserve" width="150px" height="150px" version="1.1" style="shape-rendering:geometricPrecision; text-rendering:geometricPrecision; image-rendering:optimizeQuality; fill-rule:evenodd; clip-rule:evenodd"
viewBox="0 0 8.62 8.62"
 xmlns:xlink="http://www.w3.org/1999/xlink"
 xmlns:xodm="http://www.corel.com/coreldraw/odm/2003">
 <defs>
  <style type="text/css">
   <![CDATA[
    .fil2 {fill:#0E7C86;fill-rule:nonzero}
    .fil0 {fill:#14B0BF;fill-rule:nonzero}
    .fil8 {fill:#6B4A3B;fill-rule:nonzero}
    .fil4 {fill:#A8A291;fill-rule:nonzero}
    .fil1 {fill:#B3B3B3;fill-rule:nonzero}
    .fil7 {fill:#CCCCCC;fill-rule:nonzero}
    .fil5 {fill:#D9D9D9;fill-rule:nonzero}
    .fil9 {fill:#E73127;fill-rule:nonzero}
    .fil6 {fill:#E8E8E8;fill-rule:nonzero}
    .fil3 {fill:white;fill-rule:nonzero}
   ]]>
  </style>
 </defs>
 <g id="Layer_x0020_1">
  <metadata id="CorelCorpID_0Corel-Layer"/>
  <g id="_2381649768560">
   <path class="fil0" d="M8.62 4.31c0,2.38 -1.93,4.31 -4.31,4.31 -2.38,0 -4.31,-1.93 -4.31,-4.31 0,-2.38 1.93,-4.31 4.31,-4.31 2.38,0 4.31,1.93 4.31,4.31z"/>
   <path class="fil1" d="M4.31 8.62c0,0 0,0 -0.01,0 0.01,0 0.01,0 0.01,0 2.38,0 4.31,-1.93 4.31,-4.31l0 0c0,2.38 -1.93,4.31 -4.31,4.31zm-0.01 0c0,0 0,0 0,0 0,0 0,0 0,0zm-0.01 0c0,0 0,0 0,0 0,0 0,0 0,0zm4.33 -4.31c0,0 0,0 0,-0.01 0,0.01 0,0.01 0,0.01zm0 -0.01c0,0 0,0 0,0 0,0 0,0 0,0zm0 -0.01c0,0 0,0 0,0 0,0 0,0 0,0z"/>
   <path class="fil2" d="M4.31 8.62c0,0 0,0 -0.01,0 0,0 0,0 0,0 0,0 0,0 0,0 0,0 -0.01,0 -0.01,0 0,0 0,0 0,0 -0.35,0 -0.69,-0.05 -1.01,-0.13l-1.29 -1.31 -0.02 -5.21 0.8 0 0 -0.68 3.47 0 0 0c0.23,0.03 0.37,0.12 0.45,0.22 0.02,0.01 1.25,1.25 1.81,1.81 0.08,0.31 0.12,0.64 0.12,0.97 0,0 0,0 0,0 0,0 0,0.01 0,0.01 0,0 0,0 0,0 0,0 0,0 0,0 0,0.01 0,0.01 0,0.01l0 0c0,2.38 -1.93,4.31 -4.31,4.31z"/>
   <polygon class="fil3" points="6.8,6.51 2.77,6.51 2.77,1.29 6.24,1.29 6.8,1.73 "/>
   <polygon class="fil4" points="3.27,2.22 6.32,2.22 6.32,2.1 3.27,2.1 "/>
   <polygon class="fil4" points="3.27,2.69 6.32,2.69 6.32,2.58 3.27,2.58 "/>
   <polygon class="fil4" points="3.27,3.17 6.32,3.17 6.32,3.05 3.27,3.05 "/>
   <polygon class="fil4" points="3.27,3.64 6.32,3.64 6.32,3.52 3.27,3.52 "/>
   <polygon class="fil4" points="3.27,4.11 6.32,4.11 6.32,3.99 3.27,3.99 "/>
   <polygon class="fil4" points="3.27,4.58 6.32,4.58 6.32,4.46 3.27,4.46 "/>
   <polygon class="fil4" points="3.27,5.05 6.32,5.05 6.32,4.93 3.27,4.93 "/>
   <polygon class="fil4" points="3.27,5.52 6.32,5.52 6.32,5.4 3.27,5.4 "/>
   <polygon class="fil4" points="3.27,5.99 6.32,5.99 6.32,5.87 3.27,5.87 "/>
   <path class="fil5" d="M6.19 1.29l0.17 0.49 0.44 -0.05c0,0 -0.05,-0.41 -0.61,-0.44z"/>
   <polygon class="fil6" points="6,7.19 1.97,7.19 1.97,1.97 5.44,1.97 6,2.42 "/>
   <polygon class="fil4" points="2.48,2.9 5.52,2.9 5.52,2.79 2.48,2.79 "/>
   <polygon class="fil4" points="2.48,3.38 5.52,3.38 5.52,3.26 2.48,3.26 "/>
   <polygon class="fil4" points="2.48,3.85 5.52,3.85 5.52,3.73 2.48,3.73 "/>
   <polygon class="fil4" points="2.48,4.32 5.52,4.32 5.52,4.2 2.48,4.2 "/>
   <polygon class="fil4" points="2.48,4.79 5.52,4.79 5.52,4.67 2.48,4.67 "/>
   <polygon class="fil4" points="2.48,5.26 5.52,5.26 5.52,5.14 2.48,5.14 "/>
   <polygon class="fil4" points="2.48,5.73 5.52,5.73 5.52,5.61 2.48,5.61 "/>
   <polygon class="fil4" points="2.48,6.2 5.52,6.2 5.52,6.09 2.48,6.09 "/>
   <polygon class="fil4" points="2.48,6.68 5.52,6.68 5.52,6.56 2.48,6.56 "/>
   <path class="fil7" d="M5.39 1.97l0.18 0.49 0.43 -0.04c0,0 -0.05,-0.42 -0.61,-0.45z"/>
   <polygon class="fil8" points="3.82,5.91 3.56,5.8 4.79,2.83 5.06,2.94 "/>
   <polygon class="fil9" points="3.82,5.91 3.59,6.09 3.56,5.8 "/>
   <polygon class="fil9" points="4.68,4.43 4.58,4.39 4.99,3.42 4.81,3.34 4.85,3.25 5.13,3.36 "/>
  </g>
 </g>
</svg>
