<?xml version="1.0" encoding="UTF-8"?>
<!DOCTYPE svg PUBLIC "-//W3C//DTD SVG 1.1//EN" "http://www.w3.org/Graphics/SVG/1.1/DTD/svg11.dtd">
<!-- Creator: CorelDRAW -->
<svg xmlns="http://www.w3.org/2000/svg" xml:space="preserve" width="150px" height="150px" version="1.1" style="shape-rendering:geometricPrecision; text-rendering:geometricPrecision; image-rendering:optimizeQuality; fill-rule:evenodd; clip-rule:evenodd"
viewBox="0 0 9.06 9.05"
 xmlns:xlink="http://www.w3.org/1999/xlink"
 xmlns:xodm="http://www.corel.com/coreldraw/odm/2003">
 <defs>
  <style type="text/css">
   <![CDATA[
    .fil3 {fill:#FEFEFE;fill-rule:nonzero}
    .fil5 {fill:#C9D1E0;fill-rule:nonzero}
    .fil1 {fill:#D3D2D2;fill-rule:nonzero}
    .fil2 {fill:#D91111;fill-rule:nonzero}
    .fil4 {fill:#E46A5D;fill-rule:nonzero}
    .fil0 {fill:#ED5151;fill-rule:nonzero}
    .fil6 {fill:white;fill-rule:nonzero}
   ]]>
  </style>
 </defs>
 <g id="Layer_x0020_1">
  <metadata id="CorelCorpID_0Corel-Layer"/>
  <g id="_2381553954352">
   <path class="fil0" d="M9.05 6.88c0,1.2 -0.97,2.17 -2.17,2.17l-4.71 0c-1.2,0 -2.17,-0.97 -2.17,-2.17l0 -4.71c0,-1.2 0.97,-2.17 2.17,-2.17l4.71 0c1.2,0 2.17,0.97 2.17,2.17l0 4.71z"/>
   <path class="fil1" d="M9.01 7.3c0.03,-0.14 0.04,-0.28 0.04,-0.42l0 -3.18c0.01,0 0.01,0 0.01,0l0 3.16c0,0.15 -0.01,0.3 -0.05,0.44z"/>
   <path class="fil2" d="M6.89 9.04l-1.97 0 -2.68 -2.03 0.26 -3.35 -0.66 -0.42 0 -0.97 0.74 -0.48 0.14 0 0.38 0.35 0.03 0 0 -0.35 0.14 0 1.27 0.89 0 -0.59c0,-0.07 0.06,-0.13 0.13,-0.13l0.46 0c0.05,0 0.3,0.19 0.32,0.2 0.12,-0.07 0.28,-0.11 0.45,-0.11 0.22,0 0.43,0.07 0.56,0.19 0.03,0.02 0.05,0.04 0.08,0.06l0 0.01c0.02,-0.05 0.07,-0.09 0.13,-0.09l0.42 0c0.02,0 0.98,0.73 1.96,1.48l0 3.18c0,0.14 -0.01,0.28 -0.04,0.42 -0.16,0.72 -0.71,1.3 -1.31,1.58 -0.13,0.04 -0.27,0.09 -0.27,0.09 -0.17,0.04 -0.35,0.07 -0.54,0.07z"/>
   <path class="fil3" d="M7.09 2.24l-0.42 0c-0.07,0 -0.12,0.04 -0.13,0.1 -0.12,-0.16 -0.36,-0.27 -0.64,-0.27 -0.27,0 -0.51,0.1 -0.64,0.27l0 -0.24c0,-0.07 -0.05,-0.12 -0.13,-0.12l-0.46 0c-0.07,0 -0.13,0.05 -0.13,0.12l0 0.98c0,0.07 0.06,0.12 0.13,0.12l0.46 0c0.08,0 0.13,-0.05 0.13,-0.12l0 -0.24c0.07,0.09 0.17,0.16 0.29,0.21 -0.04,0.86 -0.19,3.96 -0.19,3.96 0,0.13 0.11,0.24 0.24,0.24l0.55 0c0.13,0 0.24,-0.11 0.24,-0.24 0,0 -0.14,-3.06 -0.19,-3.95 0.15,-0.05 0.28,-0.13 0.35,-0.24 0.02,0.05 0.06,0.08 0.12,0.08l0.42 0c0.07,0 0.13,-0.06 0.13,-0.13l0 -0.4c0,-0.07 -0.06,-0.13 -0.13,-0.13z"/>
   <path class="fil4" d="M6.15 7.05l-0.55 0c-0.02,0 -0.04,-0.02 -0.04,-0.04 0,0 0.14,-2.98 0.18,-3.91 0.05,0.01 0.1,0.01 0.16,0.01 0.04,0 0.07,0 0.11,0 0.04,0.93 0.19,3.9 0.19,3.9 0,0.02 -0.02,0.04 -0.05,0.04z"/>
   <path class="fil5" d="M3.13 1.8l0 0.95 -0.41 0 0 -0.95 -0.14 0 -0.74 0.49 0 0.97 0.65 0.42 -0.25 3.34 0.05 0.04c0.02,0 0.31,0.18 0.63,0.18 0.31,0 0.62,-0.18 0.63,-0.18l0.06 -0.03 -0.25 -3.35 0.65 -0.42 0 -0.97 -0.74 -0.49 -0.14 0z"/>
   <path class="fil6" d="M3.32 2.08l0.01 0 0.49 0.32 0 0 0 0.75 -0.67 0.43 0.25 3.33c-0.09,0.05 -0.3,0.13 -0.48,0.13 -0.19,0 -0.38,-0.08 -0.47,-0.12l0.25 -3.34 -0.67 -0.43 0 0 0 -0.75 0 0 0.49 -0.32 0.01 0 0 0.86 0.79 0 0 -0.86z"/>
  </g>
 </g>
</svg>
