<?xml version="1.0" encoding="UTF-8"?>
<!DOCTYPE svg PUBLIC "-//W3C//DTD SVG 1.1//EN" "http://www.w3.org/Graphics/SVG/1.1/DTD/svg11.dtd">
<!-- Creator: CorelDRAW -->
<svg xmlns="http://www.w3.org/2000/svg" xml:space="preserve" width="150px" height="150px" version="1.1" style="shape-rendering:geometricPrecision; text-rendering:geometricPrecision; image-rendering:optimizeQuality; fill-rule:evenodd; clip-rule:evenodd"
viewBox="0 0 5.11 5.11"
 xmlns:xlink="http://www.w3.org/1999/xlink"
 xmlns:xodm="http://www.corel.com/coreldraw/odm/2003">
 <defs>
  <style type="text/css">
   <![CDATA[
    .fil6 {fill:#0C0A0A;fill-rule:nonzero}
    .fil8 {fill:#184F78;fill-rule:nonzero}
    .fil3 {fill:#80D1D9;fill-rule:nonzero}
    .fil2 {fill:#9C0C0C;fill-rule:nonzero}
    .fil1 {fill:#B3B3B3;fill-rule:nonzero}
    .fil4 {fill:#D1AB86;fill-rule:nonzero}
    .fil0 {fill:#D60B0B;fill-rule:nonzero}
    .fil5 {fill:#FFE2C2;fill-rule:nonzero}
    .fil7 {fill:#FFF8F8;fill-rule:nonzero}
   ]]>
  </style>
 </defs>
 <g id="Layer_x0020_1">
  <metadata id="CorelCorpID_0Corel-Layer"/>
  <g id="_2381669436768">
   <path class="fil0" d="M5.11 2.55c0,1.41 -1.15,2.56 -2.56,2.56 -1.41,0 -2.55,-1.15 -2.55,-2.56 0,-1.41 1.14,-2.55 2.55,-2.55 1.41,0 2.56,1.14 2.56,2.55z"/>
   <path class="fil1" d="M2.55 5.11l0 0zm0.01 0l0 0 0 0 0.01 0 -0.01 0zm-0.01 0l0 0 0 0zm-0.01 0c0,0 0,0 0,0 0,0 0,0 0,0zm0 0c0,0 0,0 0,0 0,0 0,0 0,0zm0.03 0c0,0 0,0 0,0 0,0 0,0 0,0zm-0.03 0c0,0 0,0 -0.01,0 0.01,0 0.01,0 0.01,0zm0.03 0c0.01,0 0.01,0 0.01,0 0,0 0,0 -0.01,0zm0.01 0c0.01,0 0.01,0 0.01,0 0,0 0,0 -0.01,0zm0.01 0c0,0 0,0 0,0 0,0 0,0 0,0zm0 0c0,0 0,0 0,0 0,0 0,0 0,0zm0.01 0c0,0 0,0 0,0 0,0 0,0 0,0zm0 0c0,-0.01 0.01,-0.01 0.01,-0.01 0,0 -0.01,0 -0.01,0.01zm0.01 -0.01c0.01,0 0.01,0 0.01,0 0,0 0,0 -0.01,0zm0.01 0c0.01,0 0.01,0 0.02,0 -0.01,0 -0.01,0 -0.02,0zm0.02 0c0,0 0.01,0 0.02,0 -0.01,0 -0.02,0 -0.02,0zm0.02 0c0,0 0,0 0,0 0,0 0,0 0,0zm0 0c0.01,0 0.01,0 0.02,0 -0.01,0 -0.01,0 -0.02,0zm0.02 0c0,0 0,0 0,0 0,0 0,0 0,0zm0 0c0,0 0,0 0,0 0,0 0,0 0,0zm0 0c0.01,0 0.01,0 0.01,0 0,0 0,0 -0.01,0zm0.01 0c0,0 0,0 0,0 0,0 0,0 0,0zm0 0c0.02,0 0.03,0 0.04,0 -0.01,0 -0.02,0 -0.04,0zm0.04 0c0,0 0,0 0,0 0,0 0,0 0,0zm0 0c0,0 0.01,0 0.01,0 0,0 -0.01,0 -0.01,0zm0.01 0c0,0 0,0 0,0 0,0 0,0 0,0zm0 0c0,0 0,0 0.01,0 -0.01,0 -0.01,0 -0.01,0zm0.01 0c0,0 0,0 0,0 0,0 0,0 0,0zm0 0c0,0 0,0 0,0 0,0 0,0 0,0zm0 0c0,0 0.01,0 0.01,0 0,0 -0.01,0 -0.01,0zm0.01 0c0,0 0,0 0,0 0,0 0,0 0,0zm0 0c0,0 0,0 0.01,0 -0.01,0 -0.01,0 -0.01,0zm0.01 0c0,0 0,0 0,0 0,0 0,0 0,0zm0 0c0,0 0,0 0,0 0,0 0,0 0,0zm0 0c0,0 0.01,0 0.01,0 0,0 -0.01,0 -0.01,0zm0.01 0c0,0 0,0 0,0 0,0 0,0 0,0zm0 0c0,0 0,0 0.01,-0.01 -0.01,0.01 -0.01,0.01 -0.01,0.01zm0.01 -0.01c0,0 0,0 0,0 0,0 0,0 0,0zm0 0c0,0 0.01,0 0.01,0 0,0 -0.01,0 -0.01,0zm0.01 0c0,0 0,0 0,0 0,0 0,0 0,0zm0 0c0,0 0,0 0.01,0 -0.01,0 -0.01,0 -0.01,0zm0.01 0c0,0 0,0 0,0 0,0 0,0 0,0zm0 0c0,0 0,0 0,0 0,0 0,0 0,0zm0 0c0.01,0 0.01,0 0.01,0 0,0 0,0 -0.01,0zm0.01 0c0,0 0,0 0,0 0,0 0,0 0,0zm0 0c0,0 0,0 0.01,0 -0.01,0 -0.01,0 -0.01,0zm0.01 0c0,0 0,0 0,0 0,0 0,0 0,0zm0 0c0,0 0,0 0,0 0,0 0,0 0,0zm0 0c0.01,0 0.01,0 0.01,0 0,0 0,0 -0.01,0zm0.01 0c0,0 0,0 0,0 0,0 0,0 0,0zm0 0c0,0 0,0 0.01,0 -0.01,0 -0.01,0 -0.01,0zm0.01 0c0,0 0,0 0,0 0,0 0,0 0,0zm0 0c0,0 0,0 0,0 0,0 0,0 0,0zm0 0c0.01,0 0.01,0 0.01,0 0,0 0,0 -0.01,0zm0.01 0c0,0 0,0 0,0 0,0 0,0 0,0zm0 0c0,0 0,0 0.01,0 -0.01,0 -0.01,0 -0.01,0zm0.01 0c0,0 0,0 0,0 0,0 0,0 0,0zm0 0c0,0 0,0 0,0 0,0 0,0 0,0zm0 0c0.01,0 0.01,0 0.01,-0.01 0,0.01 0,0.01 -0.01,0.01zm0.01 -0.01c0,0 0,0 0,0 0,0 0,0 0,0zm0 0c0,0 0,0 0.01,0 -0.01,0 -0.01,0 -0.01,0zm0.01 0c0,0 0,0 0,0 0,0 0,0 0,0zm0 0c0,0 0,0 0,0 0,0 0,0 0,0zm0 0c0.01,0 0.01,0 0.01,0 0,0 0,0 -0.01,0zm0.01 0c0,0 0,0 0,0 0,0 0,0 0,0zm0 0c0,0 0,0 0.01,0 -0.01,0 -0.01,0 -0.01,0zm0.01 0c0,0 0,0 0,0 0,0 0,0 0,0zm0 0c0,0 0,0 0,0 0,0 0,0 0,0zm0 0c0.01,0 0.01,0 0.01,0 0,0 0,0 -0.01,0zm0.01 0c0,0 0,0 0,0 0,0 0,0 0,0zm0 0c0,0 0,0 0.01,0 -0.01,0 -0.01,0 -0.01,0zm0.01 0c0,0 0,0 0,0 0,0 0,0 0,0zm0 0c0,0 0,0 0,0 0,0 0,0 0,0zm0 0c0.01,0 0.01,0 0.01,0 0,0 0,0 -0.01,0zm0.01 0c0,0 0,0 0,0 0,0 0,0 0,0zm0 0c0,0 0,0 0.01,0 -0.01,0 -0.01,0 -0.01,0zm0.01 0c0,0 0,-0.01 0,-0.01 0,0 0,0.01 0,0.01zm0 -0.01c0,0 0,0 0,0 0,0 0,0 0,0zm0 0c0.01,0 0.01,0 0.01,0 0,0 0,0 -0.01,0zm0.01 0c0,0 0,0 0,0 0,0 0,0 0,0zm0 0c0,0 0,0 0.01,0 -0.01,0 -0.01,0 -0.01,0zm0.01 0c0,0 0,0 0,0 0,0 0,0 0,0zm0 0c0,0 0,0 0,0 0,0 0,0 0,0zm0.01 0c0,0 0,0 0,0 0,0 0,0 0,0zm0 0c0,0 0,0 0,0 0,0 0,0 0,0zm0 0c0,0 0,0 0,0 0,0 0,0 0,0zm0.01 0c0,0 0,0 0,0 0,0 0,0 0,0zm0 0c0,0 0,0 0,0 0,0 0,0 0,0zm0 0c0.01,0 0.01,0 0.01,0 0,0 0,0 -0.01,0zm0.01 0c0,0 0,0 0,0 0,0 0,0 0,0zm0 0c0,0 0,0 0,0 0,0 0,0 0,0zm0.01 0c0,0 0,0 0,-0.01 0,0.01 0,0.01 0,0.01zm0 -0.01c0,0 0,0 0,0 0,0 0,0 0,0zm0 0c0,0 0.01,0 0.01,0 0,0 -0.01,0 -0.01,0zm0.01 0c0,0 0,0 0,0 0,0 0,0 0,0zm0 0c0,0 0,0 0,0 0,0 0,0 0,0zm0.01 0c0,0 0,0 0,0 0,0 0,0 0,0zm0 0c0,0 0,0 0,0 0,0 0,0 0,0zm0 0c0,0 0.01,0 0.01,0 0,0 -0.01,0 -0.01,0zm0.01 0c0,0 0,0 0,0 0,0 0,0 0,0zm0 0c0,0 0,0 0,0 0,0 0,0 0,0zm0.01 0c0,0 0,0 0,0 0,0 0,0 0,0zm0 0c0,0 0,0 0,0 0,0 0,0 0,0zm0 0c0,0 0,0 0.01,0 -0.01,0 -0.01,0 -0.01,0zm0.01 0c0,0 0,0 0,0 0,0 0,0 0,0zm0 -0.01c0,0 0,0 0,0 0,0 0,0 0,0zm0.01 0c0,0 0,0 0,0 0,0 0,0 0,0zm0 0c0,0 0,0 0,0 0,0 0,0 0,0zm0 0c0,0 0,0 0,0 0,0 0,0 0,0zm0.01 0c0,0 0,0 0,0 0,0 0,0 0,0zm0 0c0,0 0,0 0,0 0,0 0,0 0,0zm0.01 0c0,0 0,0 0,0 0,0 0,0 0,0zm0 0c0,0 0,0 0,0 0,0 0,0 0,0zm0 0c0,0 0,0 0,0 0,0 0,0 0,0zm0.01 0c0,0 0,0 0,0 0,0 0,0 0,0zm0 0c0,0 0,0 0,0 0,0 0,0 0,0zm0.01 0c0,0 0,0 0,0 0,0 0,0 0,0zm0 -0.01c0,0 0,0 0,0 0,0 0,0 0,0zm0 0c0,0 0,0 0,0 0,0 0,0 0,0zm0.01 0c0,0 0,0 0,0 0,0 0,0 0,0z"/>
   <path class="fil2" d="M2.55 5.11c0,0 0,0 0,0 0,0 0,0 0,0 0,0 0,0 0,0 -0.01,0 -0.01,0 -0.01,0 0,0 0,0 0,0 0,0 0,0 0,0 0,0 0,0 0,0 0,0 0,0 0,0 0,0 0,0 -0.01,0 -0.29,-0.01 -0.57,-0.06 -0.83,-0.15 -0.25,-0.24 -0.75,-0.73 -0.76,-0.73 -0.03,-0.01 -0.02,-1.23 0.14,-1.33 0.08,-0.12 0.55,-0.2 0.55,-0.2l0.13 -0.03 0.04 -0.02 0.19 -0.16c0.03,-0.03 0.06,-0.08 0.07,-0.15l0.03 0.02 0 -0.16c-0.07,-0.08 -0.13,-0.18 -0.18,-0.29l0 0c-0.02,-0.02 -0.04,-0.03 -0.05,-0.05 -0.02,-0.02 -0.04,-0.03 -0.05,-0.05 -0.04,-0.03 -0.08,-0.09 -0.1,-0.15 -0.04,-0.11 -0.04,-0.21 0.01,-0.23 0,0 0.01,0 0.01,0 0.01,0 0.03,0 0.04,0.01 -0.01,-0.06 -0.02,-0.16 -0.04,-0.29 -0.01,-0.1 0,-0.18 0.02,-0.24 0.03,-0.11 0.06,-0.21 0.11,-0.25 0.23,-0.19 0.35,-0.27 0.68,-0.27 0,0 0,0 0,0 0.25,0 0.55,0.14 0.65,0.25l0.01 0.01c0.01,0.01 1.89,1.89 1.9,1.9l0.01 0c-0.01,1.22 -0.85,2.23 -1.99,2.49l0 0c0,0 0,0 0,0 0,0 0,0 0,0 0,0 -0.01,0 -0.01,0 0,0 0,0 0,0 0,0 0,0 0,0 0,0 0,0 0,0 0,0 0,0.01 0,0.01 0,0 0,0 0,0 -0.01,0 -0.01,0 -0.01,0 0,0 0,0 0,0 0,0 0,0 0,0 0,0 0,0 0,0 0,0 0,0 -0.01,0 0,0 0,0 0,0 0,0 0,0 0,0 0,0 0,0 0,0 0,0 0,0 0,0 0,0 0,0 0,0 -0.01,0 -0.01,0 -0.01,0 0,0 0,0 0,0 0,0 0,0 0,0 0,0 0,0 0,0 0,0 0,0 -0.01,0 0,0 0,0 0,0 0,0 0,0 0,0 0,0 0,0 0,0 0,0 0,0 0,0 0,0 0,0 0,0 -0.01,0 -0.01,0 -0.01,0 0,0 0,0 0,0 0,0 0,0.01 0,0.01 0,0 0,0 0,0 0,0 0,0 0,0 -0.01,0 -0.01,0 -0.01,0 0,0 0,0 0,0 0,0 0,0 0,0 0,0 0,0 0,0 0,0 0,0 0,0 0,0 -0.01,0 -0.01,0 0,0 0,0 0,0 0,0 0,0 0,0 0,0 0,0 0,0 0,0 0,0 0,0 0,0 -0.01,0 -0.01,0 0,0 0,0 0,0 0,0 0,0 0,0 0,0 0,0 0,0 0,0 0,0 0,0 0,0 -0.01,0 -0.01,0 0,0 0,0 0,0 0,0 0,0 0,0 0,0 0,0 0,0 0,0 0,0 0,0 0,0 -0.01,0 -0.01,0 0,0 0,0 0,0 0,0 0,0 0,0 0,0 0,0 0,0 0,0.01 0,0.01 0,0.01 0,0 0,0 -0.01,0 0,0 0,0 0,0 0,0 0,0 0,0 0,0 0,0 0,0 0,0 0,0 0,0 0,0 0,0 -0.01,0 0,0 0,0 0,0 0,0 0,0 0,0 0,0 0,0 0,0 0,0 0,0 0,0 0,0 0,0 -0.01,0 0,0 0,0 0,0 0,0 0,0 0,0 0,0 0,0 0,0 0,0 0,0 0,0 0,0 0,0 0,0 -0.01,0 -0.01,0 -0.01,0 0,0 0,0 0,0 0,0 0,0 0,0 0,0 0,0 0,0 0,0 0,0 0,0 -0.01,0 -0.01,0 -0.01,0 0,0 0,0 0,0 0,0 0,0 0,0 0,0 0,0 0,0 0,0 0,0 -0.01,0 0,0 0,0 0,0 0,0 0,0 0,0 0,0 0,0 0,0 0,0 0,0.01 0,0.01 0,0 0,0 0,0 -0.01,0 -0.01,0 -0.01,0 0,0 0,0 0,0 0,0 0,0 0,0 0,0 0,0 0,0 0,0 0,0 -0.01,0 0,0 0,0 0,0 0,0 0,0 0,0 0,0 0,0 0,0 0,0 0,0 0,0 0,0 0,0 0,0 -0.01,0 -0.01,0 -0.01,0 0,0 0,0 0,0 0,0 0,0 0,0 0,0 0,0 0,0 0,0 0,0 -0.01,0 0,0 0,0 0,0 0,0 0,0 0,0 0,0 0,0 0,0 0,0 0,0 0,0 0,0 0,0 0,0 -0.01,0 -0.01,0 -0.01,0 0,0 0,0 0,0 0,0 0,0 0,0 0,0 0,0 0,0 0,0 0,0 -0.01,0 0,0 0,0 0,0 0,0 0,0 0,0 0,0 0,0 0,0 0,0 0,0 0,0 0,0 0,0 0,0 -0.01,0 -0.01,0 -0.01,0 0,0 0,0 0,0 0,0 0,0 0,0 0,0 0,0 0,0 0,0.01 0,0.01 -0.01,0.01 0,0 0,0 0,0 0,0 0,0 0,0 0,0 0,0 0,0 0,0 0,0 0,0 0,0 0,0 0,0 -0.01,0 -0.01,0 -0.01,0 0,0 0,0 0,0 0,0 0,0 0,0 0,0 0,0 0,0 0,0 0,0 -0.01,0 0,0 0,0 0,0 0,0 0,0 0,0 0,0 0,0 0,0 0,0 0,0 0,0 0,0 0,0 0,0 -0.01,0 -0.01,0 -0.01,0 0,0 0,0 0,0 0,0 0,0 0,0 0,0 0,0 0,0 0,0 0,0 -0.01,0 0,0 0,0 0,0 0,0 0,0 0,0 0,0 0,0 0,0 0,0 0,0 0,0 0,0 0,0 0,0 -0.01,0 -0.01,0 -0.01,0 0,0 0,0 0,0 0,0 0,0 0,0 0,0 0,0 0,0 0,0 0,0 -0.01,0 0,0 0,0 0,0 0,0 0,0 0,0 0,0 0,0 0,0 0,0 0,0 0,0 0,0 0,0 0,0 -0.01,0 -0.01,0 -0.01,0 0,0 0,0 0,0 0,0 0,0 0,0 0,0 0,0 0,0 0,0 -0.01,0 -0.01,0 0,0 0,0 0,0 0,0 0,0 0,0 0,0 0,0 0,0 -0.01,0.01 -0.01,0.01 -0.01,0.01 0,0 0,0 0,0 0,0 0,0 0,0 0,0 0,0 0,0 0,0 -0.01,0 -0.01,0 0,0 0,0 0,0 0,0 0,0 0,0 0,0 0,0 0,0 0,0 0,0 0,0 0,0 0,0 0,0 -0.01,0 -0.01,0 -0.01,0 0,0 0,0 0,0 0,0 0,0 0,0 0,0 0,0 0,0 0,0 -0.01,0 -0.01,0 0,0 0,0 0,0 0,0 0,0 0,0 0,0 0,0 0,0 0,0 0,0 0,0 0,0 0,0 0,0 -0.01,0 -0.01,0 -0.01,0 0,0 0,0 0,0 0,0 0,0 0,0 0,0 0,0 0,0 0,0 -0.01,0 -0.01,0 0,0 0,0 0,0 0,0 0,0 0,0 0,0 0,0 0,0 -0.01,0 -0.02,0 -0.04,0 0,0 0,0 0,0 0,0 0,0 0,0 0,0 0,0 0,0 0,0 0,0 -0.01,0 0,0 0,0 0,0 0,0 0,0 0,0 0,0 0,0 0,0 0,0 0,0 0,0 0,0 0,0 0,0 -0.01,0 -0.01,0 -0.02,0 0,0 0,0 0,0 0,0 0,0 0,0 0,0 0,0 0,0 -0.01,0 -0.02,0 -0.02,0l0 0c-0.01,0 -0.01,0 -0.02,0 0,0 0,0 0,0 0,0 0,0 -0.01,0 0,0 0,0 0,0 0,0 -0.01,0 -0.01,0.01 0,0 0,0 0,0 0,0 0,0 0,0 0,0 -0.01,0 -0.01,0 0,0 0,0 0,0 0,0 0,0 0,0 0,0 0,0 0,0 0,0 0,0 0,0 0,0 0,0 -0.01,0 0,0 0,0 0,0 0,0 0,0 -0.01,0 0,0 0,0 0,0 0,0 0,0 0,0 0,0 0,0 0,0 0,0 -0.01,0 -0.01,0 0,0 -0.01,0 -0.01,0l0 0z"/>
   <path class="fil3" d="M2.67 4.06l0.79 -1.27 -0.41 -0.31 -1.04 0.07 -0.39 0.37 0.89 1.23c0.05,-0.03 0.1,-0.06 0.16,-0.09z"/>
   <polygon class="fil4" points="2.09,2.63 3.02,2.63 3.02,1.98 2.09,1.98 "/>
   <path class="fil5" d="M1.8 1.52c0.06,0.56 0.48,0.97 0.75,0.97 0.29,0 0.68,-0.43 0.75,-0.97 0.06,-0.54 -0.34,-0.81 -0.75,-0.81 -0.41,0 -0.8,0.27 -0.75,0.81z"/>
   <path class="fil6" d="M3.33 0.97c-0.03,-0.1 -0.06,-0.24 -0.14,-0.33 -0.1,-0.11 -0.4,-0.25 -0.65,-0.25 -0.33,0 -0.45,0.08 -0.68,0.27 -0.05,0.04 -0.08,0.14 -0.11,0.25 -0.02,0.06 -0.03,0.14 -0.02,0.24 0.04,0.35 0.07,0.45 0.07,0.45l0.09 0.04c0,0 -0.04,-0.12 0.01,-0.29 0.02,-0.04 0.04,-0.09 0.07,-0.12 0.1,0.05 0.21,0.13 0.33,0.13 0.24,-0.01 0.34,-0.2 0.45,-0.18 0.22,0.04 0.35,0.3 0.48,0.3 0.01,0.1 -0.01,0.16 -0.01,0.16l0.05 -0.04c0,0 0.01,-0.03 0.02,-0.12 0.02,0 0.03,0 0.03,0 0,0 0.08,-0.26 0.01,-0.51z"/>
   <path class="fil5" d="M3.23 1.6c-0.04,0.12 -0.07,0.22 -0.02,0.24 0.05,0.02 0.15,-0.07 0.19,-0.18 0.04,-0.11 0.03,-0.21 -0.01,-0.23 -0.05,-0.02 -0.12,0.06 -0.16,0.17z"/>
   <path class="fil5" d="M1.87 1.6c0.04,0.12 0.07,0.22 0.02,0.24 -0.04,0.02 -0.15,-0.07 -0.18,-0.18 -0.04,-0.11 -0.04,-0.21 0.01,-0.23 0.04,-0.02 0.11,0.06 0.15,0.17z"/>
   <path class="fil7" d="M2.06 2.34l0.49 0.29 -0.16 0.34 -0.39 -0.35c0,0 -0.1,-0.03 -0.06,-0.08 0.03,-0.04 0.11,-0.08 0.12,-0.2z"/>
   <path class="fil7" d="M3.05 2.34l-0.5 0.29 0.17 0.34 0.38 -0.35c0,0 0.1,-0.03 0.07,-0.08 -0.03,-0.04 -0.11,-0.08 -0.12,-0.2z"/>
   <path class="fil8" d="M1.8 2.65l-0.04 0.02 -0.13 0.03c0,0 -0.47,0.08 -0.55,0.2 -0.16,0.1 -0.17,1.32 -0.14,1.33 0.03,0 1.45,0 1.45,0 0.05,-0.04 0.11,-0.07 0.16,-0.11l0 0 -0.56 -1.63 -0.19 0.16z"/>
   <path class="fil8" d="M4.03 2.9c-0.09,-0.12 -0.55,-0.2 -0.55,-0.2l-0.1 -0.02 -0.07 -0.04 -0.19 -0.15 -0.57 1.63 0 0 0 0c-0.11,0.05 -0.3,0.07 -0.25,0.11 0,0 1.83,0 1.86,0 0.03,-0.01 0.02,-1.23 -0.13,-1.33z"/>
  </g>
 </g>
</svg>
